<svg width="137" height="137" viewBox="0 0 137 137" fill="none" xmlns="http://www.w3.org/2000/svg">
<mask id="mask0_7_8" style="mask-type:alpha" maskUnits="userSpaceOnUse" x="0" y="0" width="137" height="137">
<rect width="136.442" height="136.442" fill="#FFFFFF"/>
</mask>
<g mask="url(#mask0_7_8)">
<path d="M68.2208 93.6615C77.6011 86.0814 84.6838 78.7856 89.4687 71.774C94.2537 64.7624 96.6461 58.1772 96.6461 52.0184C96.6461 46.7123 95.6749 42.188 93.7325 38.4453C91.7901 34.7026 89.3977 31.6706 86.5551 29.3492C83.7126 27.0278 80.6332 25.3459 77.3169 24.3037C74.0006 23.2614 70.9686 22.7403 68.2208 22.7403C65.473 22.7403 62.441 23.2614 59.1247 24.3037C55.8084 25.3459 52.729 27.0278 49.8864 29.3492C47.0439 31.6706 44.6514 34.7026 42.709 38.4453C40.7666 42.188 39.7954 46.7123 39.7954 52.0184C39.7954 58.1772 42.1879 64.7624 46.9728 71.774C51.7578 78.7856 58.8404 86.0814 68.2208 93.6615ZM68.2208 108.016C54.8609 98.1622 44.8883 88.5923 38.3031 79.3067C31.7179 70.0211 28.4253 60.925 28.4253 52.0184C28.4253 45.2911 29.6334 39.3928 32.0495 34.3236C34.4657 29.2544 37.5688 25.0143 41.3588 21.6033C45.1489 18.1922 49.4127 15.6339 54.1502 13.9284C58.8878 12.2229 63.578 11.3701 68.2208 11.3701C72.8636 11.3701 77.5538 12.2229 82.2913 13.9284C87.0289 15.6339 91.2927 18.1922 95.0827 21.6033C98.8728 25.0143 101.976 29.2544 104.392 34.3236C106.808 39.3928 108.016 45.2911 108.016 52.0184C108.016 60.925 104.724 70.0211 98.1385 79.3067C91.5532 88.5923 81.5807 98.1622 68.2208 108.016ZM68.2208 62.5358C71.3476 62.5358 74.0243 61.4224 76.2509 59.1958C78.4776 56.9691 79.5909 54.2924 79.5909 51.1656C79.5909 48.0388 78.4776 45.3621 76.2509 43.1355C74.0243 40.9088 71.3476 39.7955 68.2208 39.7955C65.094 39.7955 62.4173 40.9088 60.1906 43.1355C57.964 45.3621 56.8506 48.0388 56.8506 51.1656C56.8506 54.2924 57.964 56.9691 60.1906 59.1958C62.4173 61.4224 65.094 62.5358 68.2208 62.5358ZM28.4253 125.072V113.701H108.016V125.072H28.4253Z" fill="#FFFFFF"/>
</g>
</svg>
